<mxfile host="Electron" agent="Mozilla/5.0 (Windows NT 10.0; Win64; x64) AppleWebKit/537.36 (KHTML, like Gecko) draw.io/24.7.17 Chrome/128.0.6613.36 Electron/32.0.1 Safari/537.36" version="24.7.17">
  <diagram name="Page-1" id="Dzm7KrGVt5WEHozSuBk3">
    <mxGraphModel dx="461" dy="721" grid="1" gridSize="10" guides="1" tooltips="1" connect="1" arrows="1" fold="1" page="1" pageScale="1" pageWidth="1169" pageHeight="827" math="0" shadow="0">
      <root>
        <mxCell id="0" />
        <mxCell id="1" parent="0" />
        <mxCell id="hyiKAdDwsRACDt_2N2M8-2" value="CLIENTI" style="swimlane;fontStyle=1;childLayout=stackLayout;horizontal=1;startSize=26;horizontalStack=0;resizeParent=1;resizeParentMax=0;resizeLast=0;collapsible=1;marginBottom=0;align=center;fontSize=15;strokeWidth=2;" parent="1" vertex="1">
          <mxGeometry x="50" y="95" width="160" height="146" as="geometry" />
        </mxCell>
        <mxCell id="hyiKAdDwsRACDt_2N2M8-3" value="&lt;font style=&quot;font-size: 14px;&quot;&gt;PK client_id&lt;/font&gt;" style="text;strokeColor=none;fillColor=none;spacingLeft=4;spacingRight=4;overflow=hidden;rotatable=0;points=[[0,0.5],[1,0.5]];portConstraint=eastwest;fontSize=12;whiteSpace=wrap;html=1;" parent="hyiKAdDwsRACDt_2N2M8-2" vertex="1">
          <mxGeometry y="26" width="160" height="30" as="geometry" />
        </mxCell>
        <mxCell id="hyiKAdDwsRACDt_2N2M8-4" value="&lt;font style=&quot;font-size: 14px;&quot;&gt;nume&lt;/font&gt;" style="text;strokeColor=none;fillColor=none;spacingLeft=4;spacingRight=4;overflow=hidden;rotatable=0;points=[[0,0.5],[1,0.5]];portConstraint=eastwest;fontSize=12;whiteSpace=wrap;html=1;" parent="hyiKAdDwsRACDt_2N2M8-2" vertex="1">
          <mxGeometry y="56" width="160" height="30" as="geometry" />
        </mxCell>
        <mxCell id="hyiKAdDwsRACDt_2N2M8-5" value="&lt;font style=&quot;font-size: 14px;&quot;&gt;varsta&lt;/font&gt;" style="text;strokeColor=none;fillColor=none;spacingLeft=4;spacingRight=4;overflow=hidden;rotatable=0;points=[[0,0.5],[1,0.5]];portConstraint=eastwest;fontSize=12;whiteSpace=wrap;html=1;" parent="hyiKAdDwsRACDt_2N2M8-2" vertex="1">
          <mxGeometry y="86" width="160" height="30" as="geometry" />
        </mxCell>
        <mxCell id="hyiKAdDwsRACDt_2N2M8-6" value="&lt;font style=&quot;font-size: 14px;&quot;&gt;nr_telefon&lt;/font&gt;" style="text;strokeColor=none;fillColor=none;spacingLeft=4;spacingRight=4;overflow=hidden;rotatable=0;points=[[0,0.5],[1,0.5]];portConstraint=eastwest;fontSize=12;whiteSpace=wrap;html=1;" parent="hyiKAdDwsRACDt_2N2M8-2" vertex="1">
          <mxGeometry y="116" width="160" height="30" as="geometry" />
        </mxCell>
        <mxCell id="hyiKAdDwsRACDt_2N2M8-7" value="REZERVARI" style="swimlane;fontStyle=1;childLayout=stackLayout;horizontal=1;startSize=26;horizontalStack=0;resizeParent=1;resizeParentMax=0;resizeLast=0;collapsible=1;marginBottom=0;align=center;fontSize=15;strokeWidth=2;dashed=1;" parent="1" vertex="1">
          <mxGeometry x="330" y="82" width="160" height="172" as="geometry" />
        </mxCell>
        <mxCell id="hyiKAdDwsRACDt_2N2M8-8" value="&lt;font style=&quot;font-size: 14px;&quot;&gt;PK bilet_id&lt;/font&gt;" style="text;strokeColor=none;fillColor=none;spacingLeft=4;spacingRight=4;overflow=hidden;rotatable=0;points=[[0,0.5],[1,0.5]];portConstraint=eastwest;fontSize=12;whiteSpace=wrap;html=1;" parent="hyiKAdDwsRACDt_2N2M8-7" vertex="1">
          <mxGeometry y="26" width="160" height="26" as="geometry" />
        </mxCell>
        <mxCell id="hyiKAdDwsRACDt_2N2M8-9" value="&lt;font style=&quot;font-size: 14px;&quot;&gt;PK client_id&lt;/font&gt;" style="text;strokeColor=none;fillColor=none;spacingLeft=4;spacingRight=4;overflow=hidden;rotatable=0;points=[[0,0.5],[1,0.5]];portConstraint=eastwest;fontSize=12;whiteSpace=wrap;html=1;" parent="hyiKAdDwsRACDt_2N2M8-7" vertex="1">
          <mxGeometry y="52" width="160" height="30" as="geometry" />
        </mxCell>
        <mxCell id="hyiKAdDwsRACDt_2N2M8-10" value="&lt;font style=&quot;font-size: 14px;&quot;&gt;PK film_id&lt;/font&gt;" style="text;strokeColor=none;fillColor=none;spacingLeft=4;spacingRight=4;overflow=hidden;rotatable=0;points=[[0,0.5],[1,0.5]];portConstraint=eastwest;fontSize=12;whiteSpace=wrap;html=1;" parent="hyiKAdDwsRACDt_2N2M8-7" vertex="1">
          <mxGeometry y="82" width="160" height="30" as="geometry" />
        </mxCell>
        <mxCell id="hyiKAdDwsRACDt_2N2M8-11" value="&lt;font style=&quot;font-size: 14px;&quot;&gt;FK sala_id&lt;/font&gt;" style="text;strokeColor=none;fillColor=none;spacingLeft=4;spacingRight=4;overflow=hidden;rotatable=0;points=[[0,0.5],[1,0.5]];portConstraint=eastwest;fontSize=12;whiteSpace=wrap;html=1;" parent="hyiKAdDwsRACDt_2N2M8-7" vertex="1">
          <mxGeometry y="112" width="160" height="30" as="geometry" />
        </mxCell>
        <mxCell id="hyiKAdDwsRACDt_2N2M8-12" value="&lt;font style=&quot;font-size: 14px;&quot;&gt;data_achizitionare&lt;/font&gt;" style="text;strokeColor=none;fillColor=none;spacingLeft=4;spacingRight=4;overflow=hidden;rotatable=0;points=[[0,0.5],[1,0.5]];portConstraint=eastwest;fontSize=12;whiteSpace=wrap;html=1;" parent="hyiKAdDwsRACDt_2N2M8-7" vertex="1">
          <mxGeometry y="142" width="160" height="30" as="geometry" />
        </mxCell>
        <mxCell id="hyiKAdDwsRACDt_2N2M8-14" value="" style="edgeStyle=entityRelationEdgeStyle;fontSize=12;html=1;endArrow=ERoneToMany;rounded=0;strokeWidth=2;endSize=12;startSize=6;" parent="1" edge="1">
          <mxGeometry width="100" height="100" relative="1" as="geometry">
            <mxPoint x="210" y="168" as="sourcePoint" />
            <mxPoint x="330" y="168" as="targetPoint" />
          </mxGeometry>
        </mxCell>
        <mxCell id="hyiKAdDwsRACDt_2N2M8-15" value="FILME" style="swimlane;fontStyle=1;childLayout=stackLayout;horizontal=1;startSize=26;horizontalStack=0;resizeParent=1;resizeParentMax=0;resizeLast=0;collapsible=1;marginBottom=0;align=center;fontSize=15;strokeWidth=2;" parent="1" vertex="1">
          <mxGeometry x="610" y="80" width="160" height="176" as="geometry" />
        </mxCell>
        <mxCell id="hyiKAdDwsRACDt_2N2M8-16" value="&lt;font style=&quot;font-size: 14px;&quot;&gt;PK film_id&lt;/font&gt;" style="text;strokeColor=none;fillColor=none;spacingLeft=4;spacingRight=4;overflow=hidden;rotatable=0;points=[[0,0.5],[1,0.5]];portConstraint=eastwest;fontSize=12;whiteSpace=wrap;html=1;" parent="hyiKAdDwsRACDt_2N2M8-15" vertex="1">
          <mxGeometry y="26" width="160" height="30" as="geometry" />
        </mxCell>
        <mxCell id="hyiKAdDwsRACDt_2N2M8-17" value="&lt;font style=&quot;font-size: 14px;&quot;&gt;titlul&lt;/font&gt;" style="text;strokeColor=none;fillColor=none;spacingLeft=4;spacingRight=4;overflow=hidden;rotatable=0;points=[[0,0.5],[1,0.5]];portConstraint=eastwest;fontSize=12;whiteSpace=wrap;html=1;" parent="hyiKAdDwsRACDt_2N2M8-15" vertex="1">
          <mxGeometry y="56" width="160" height="30" as="geometry" />
        </mxCell>
        <mxCell id="hyiKAdDwsRACDt_2N2M8-18" value="&lt;font style=&quot;font-size: 14px;&quot;&gt;gen&lt;/font&gt;" style="text;strokeColor=none;fillColor=none;spacingLeft=4;spacingRight=4;overflow=hidden;rotatable=0;points=[[0,0.5],[1,0.5]];portConstraint=eastwest;fontSize=12;whiteSpace=wrap;html=1;" parent="hyiKAdDwsRACDt_2N2M8-15" vertex="1">
          <mxGeometry y="86" width="160" height="30" as="geometry" />
        </mxCell>
        <mxCell id="hyiKAdDwsRACDt_2N2M8-19" value="&lt;font style=&quot;font-size: 14px;&quot;&gt;an_lansare&lt;/font&gt;" style="text;strokeColor=none;fillColor=none;spacingLeft=4;spacingRight=4;overflow=hidden;rotatable=0;points=[[0,0.5],[1,0.5]];portConstraint=eastwest;fontSize=12;whiteSpace=wrap;html=1;" parent="hyiKAdDwsRACDt_2N2M8-15" vertex="1">
          <mxGeometry y="116" width="160" height="30" as="geometry" />
        </mxCell>
        <mxCell id="hyiKAdDwsRACDt_2N2M8-20" value="&lt;font style=&quot;font-size: 14px;&quot;&gt;regizor&lt;/font&gt;" style="text;strokeColor=none;fillColor=none;spacingLeft=4;spacingRight=4;overflow=hidden;rotatable=0;points=[[0,0.5],[1,0.5]];portConstraint=eastwest;fontSize=12;whiteSpace=wrap;html=1;" parent="hyiKAdDwsRACDt_2N2M8-15" vertex="1">
          <mxGeometry y="146" width="160" height="30" as="geometry" />
        </mxCell>
        <mxCell id="hyiKAdDwsRACDt_2N2M8-21" value="" style="edgeStyle=entityRelationEdgeStyle;fontSize=12;html=1;endArrow=none;rounded=0;strokeWidth=2;endSize=6;startSize=12;startArrow=ERoneToMany;startFill=0;endFill=0;" parent="1" edge="1">
          <mxGeometry width="100" height="100" relative="1" as="geometry">
            <mxPoint x="490" y="167.49999999999997" as="sourcePoint" />
            <mxPoint x="610" y="167" as="targetPoint" />
            <Array as="points">
              <mxPoint x="640" y="167.49999999999997" />
            </Array>
          </mxGeometry>
        </mxCell>
        <mxCell id="hyiKAdDwsRACDt_2N2M8-22" value="SALI" style="swimlane;fontStyle=1;childLayout=stackLayout;horizontal=1;startSize=26;horizontalStack=0;resizeParent=1;resizeParentMax=0;resizeLast=0;collapsible=1;marginBottom=0;align=center;fontSize=15;strokeWidth=2;" parent="1" vertex="1">
          <mxGeometry x="880" y="110" width="150" height="116" as="geometry" />
        </mxCell>
        <mxCell id="hyiKAdDwsRACDt_2N2M8-23" value="&lt;font style=&quot;font-size: 14px;&quot;&gt;PK sala_id&lt;/font&gt;" style="text;strokeColor=none;fillColor=none;spacingLeft=4;spacingRight=4;overflow=hidden;rotatable=0;points=[[0,0.5],[1,0.5]];portConstraint=eastwest;fontSize=12;whiteSpace=wrap;html=1;" parent="hyiKAdDwsRACDt_2N2M8-22" vertex="1">
          <mxGeometry y="26" width="150" height="30" as="geometry" />
        </mxCell>
        <mxCell id="hyiKAdDwsRACDt_2N2M8-24" value="&lt;font style=&quot;font-size: 14px;&quot;&gt;capacitate&lt;/font&gt;" style="text;strokeColor=none;fillColor=none;spacingLeft=4;spacingRight=4;overflow=hidden;rotatable=0;points=[[0,0.5],[1,0.5]];portConstraint=eastwest;fontSize=12;whiteSpace=wrap;html=1;" parent="hyiKAdDwsRACDt_2N2M8-22" vertex="1">
          <mxGeometry y="56" width="150" height="30" as="geometry" />
        </mxCell>
        <mxCell id="hyiKAdDwsRACDt_2N2M8-27" style="text;strokeColor=none;fillColor=none;spacingLeft=4;spacingRight=4;overflow=hidden;rotatable=0;points=[[0,0.5],[1,0.5]];portConstraint=eastwest;fontSize=12;whiteSpace=wrap;html=1;" parent="hyiKAdDwsRACDt_2N2M8-22" vertex="1">
          <mxGeometry y="86" width="150" height="30" as="geometry" />
        </mxCell>
        <mxCell id="hyiKAdDwsRACDt_2N2M8-28" value="" style="endArrow=none;html=1;rounded=0;strokeWidth=2;startArrow=ERmany;startFill=0;endSize=6;targetPerimeterSpacing=0;sourcePerimeterSpacing=0;startSize=12;" parent="1" edge="1">
          <mxGeometry relative="1" as="geometry">
            <mxPoint x="770" y="167.52" as="sourcePoint" />
            <mxPoint x="880" y="168" as="targetPoint" />
          </mxGeometry>
        </mxCell>
        <mxCell id="hyiKAdDwsRACDt_2N2M8-29" value="PROGRAM" style="swimlane;fontStyle=1;childLayout=stackLayout;horizontal=1;startSize=26;horizontalStack=0;resizeParent=1;resizeParentMax=0;resizeLast=0;collapsible=1;marginBottom=0;align=center;fontSize=15;strokeWidth=2;" parent="1" vertex="1">
          <mxGeometry x="880" y="320" width="150" height="146" as="geometry" />
        </mxCell>
        <mxCell id="hyiKAdDwsRACDt_2N2M8-30" value="&lt;font style=&quot;font-size: 14px;&quot;&gt;PK program_id&lt;/font&gt;" style="text;strokeColor=none;fillColor=none;spacingLeft=4;spacingRight=4;overflow=hidden;rotatable=0;points=[[0,0.5],[1,0.5]];portConstraint=eastwest;fontSize=12;whiteSpace=wrap;html=1;" parent="hyiKAdDwsRACDt_2N2M8-29" vertex="1">
          <mxGeometry y="26" width="150" height="30" as="geometry" />
        </mxCell>
        <mxCell id="hyiKAdDwsRACDt_2N2M8-31" value="&lt;font style=&quot;font-size: 14px;&quot;&gt;FK sala_id&lt;/font&gt;" style="text;strokeColor=none;fillColor=none;spacingLeft=4;spacingRight=4;overflow=hidden;rotatable=0;points=[[0,0.5],[1,0.5]];portConstraint=eastwest;fontSize=12;whiteSpace=wrap;html=1;" parent="hyiKAdDwsRACDt_2N2M8-29" vertex="1">
          <mxGeometry y="56" width="150" height="30" as="geometry" />
        </mxCell>
        <mxCell id="hyiKAdDwsRACDt_2N2M8-32" value="&lt;font style=&quot;font-size: 14px;&quot;&gt;FK film_id&lt;/font&gt;" style="text;strokeColor=none;fillColor=none;spacingLeft=4;spacingRight=4;overflow=hidden;rotatable=0;points=[[0,0.5],[1,0.5]];portConstraint=eastwest;fontSize=12;whiteSpace=wrap;html=1;" parent="hyiKAdDwsRACDt_2N2M8-29" vertex="1">
          <mxGeometry y="86" width="150" height="30" as="geometry" />
        </mxCell>
        <mxCell id="hyiKAdDwsRACDt_2N2M8-33" value="&lt;font style=&quot;font-size: 14px;&quot;&gt;data_incepere&lt;/font&gt;" style="text;strokeColor=none;fillColor=none;spacingLeft=4;spacingRight=4;overflow=hidden;rotatable=0;points=[[0,0.5],[1,0.5]];portConstraint=eastwest;fontSize=12;whiteSpace=wrap;html=1;" parent="hyiKAdDwsRACDt_2N2M8-29" vertex="1">
          <mxGeometry y="116" width="150" height="30" as="geometry" />
        </mxCell>
        <mxCell id="hyiKAdDwsRACDt_2N2M8-36" value="" style="endArrow=none;html=1;rounded=0;strokeWidth=2;endFill=0;endSize=6;startArrow=ERmany;startFill=0;startSize=12;" parent="1" edge="1">
          <mxGeometry relative="1" as="geometry">
            <mxPoint x="954" y="320" as="sourcePoint" />
            <mxPoint x="954.35" y="226" as="targetPoint" />
          </mxGeometry>
        </mxCell>
        <mxCell id="hyiKAdDwsRACDt_2N2M8-37" value="BILETE" style="swimlane;fontStyle=1;childLayout=stackLayout;horizontal=1;startSize=26;horizontalStack=0;resizeParent=1;resizeParentMax=0;resizeLast=0;collapsible=1;marginBottom=0;align=center;fontSize=15;strokeWidth=2;" parent="1" vertex="1">
          <mxGeometry x="330" y="340" width="160" height="206" as="geometry" />
        </mxCell>
        <mxCell id="hyiKAdDwsRACDt_2N2M8-38" value="&lt;font style=&quot;font-size: 14px;&quot;&gt;PK bilet_id&lt;/font&gt;" style="text;strokeColor=none;fillColor=none;spacingLeft=4;spacingRight=4;overflow=hidden;rotatable=0;points=[[0,0.5],[1,0.5]];portConstraint=eastwest;fontSize=12;whiteSpace=wrap;html=1;" parent="hyiKAdDwsRACDt_2N2M8-37" vertex="1">
          <mxGeometry y="26" width="160" height="30" as="geometry" />
        </mxCell>
        <mxCell id="hyiKAdDwsRACDt_2N2M8-39" value="&lt;font style=&quot;font-size: 14px;&quot;&gt;FK client_id&lt;/font&gt;" style="text;strokeColor=none;fillColor=none;spacingLeft=4;spacingRight=4;overflow=hidden;rotatable=0;points=[[0,0.5],[1,0.5]];portConstraint=eastwest;fontSize=12;whiteSpace=wrap;html=1;" parent="hyiKAdDwsRACDt_2N2M8-37" vertex="1">
          <mxGeometry y="56" width="160" height="30" as="geometry" />
        </mxCell>
        <mxCell id="pb1PbGUfgkE5dObdwj4M-3" value="&lt;font style=&quot;font-size: 14px;&quot;&gt;FK film_id&lt;/font&gt;" style="text;strokeColor=none;fillColor=none;spacingLeft=4;spacingRight=4;overflow=hidden;rotatable=0;points=[[0,0.5],[1,0.5]];portConstraint=eastwest;fontSize=12;whiteSpace=wrap;html=1;" parent="hyiKAdDwsRACDt_2N2M8-37" vertex="1">
          <mxGeometry y="86" width="160" height="30" as="geometry" />
        </mxCell>
        <mxCell id="hyiKAdDwsRACDt_2N2M8-40" value="&lt;font style=&quot;font-size: 14px;&quot;&gt;nr_locuri&lt;/font&gt;" style="text;strokeColor=none;fillColor=none;spacingLeft=4;spacingRight=4;overflow=hidden;rotatable=0;points=[[0,0.5],[1,0.5]];portConstraint=eastwest;fontSize=12;whiteSpace=wrap;html=1;" parent="hyiKAdDwsRACDt_2N2M8-37" vertex="1">
          <mxGeometry y="116" width="160" height="30" as="geometry" />
        </mxCell>
        <mxCell id="hyiKAdDwsRACDt_2N2M8-41" value="&lt;font style=&quot;font-size: 14px;&quot;&gt;pret&lt;/font&gt;" style="text;strokeColor=none;fillColor=none;spacingLeft=4;spacingRight=4;overflow=hidden;rotatable=0;points=[[0,0.5],[1,0.5]];portConstraint=eastwest;fontSize=12;whiteSpace=wrap;html=1;" parent="hyiKAdDwsRACDt_2N2M8-37" vertex="1">
          <mxGeometry y="146" width="160" height="30" as="geometry" />
        </mxCell>
        <mxCell id="ZAPv2DYf9f-i43JX2pXG-1" value="&lt;font style=&quot;font-size: 14px;&quot;&gt;FK angajat_id&lt;/font&gt;" style="text;strokeColor=none;fillColor=none;spacingLeft=4;spacingRight=4;overflow=hidden;rotatable=0;points=[[0,0.5],[1,0.5]];portConstraint=eastwest;fontSize=12;whiteSpace=wrap;html=1;" vertex="1" parent="hyiKAdDwsRACDt_2N2M8-37">
          <mxGeometry y="176" width="160" height="30" as="geometry" />
        </mxCell>
        <mxCell id="hyiKAdDwsRACDt_2N2M8-42" value="" style="endArrow=ERoneToMany;html=1;rounded=0;strokeWidth=2;endFill=0;endSize=12;" parent="1" edge="1">
          <mxGeometry relative="1" as="geometry">
            <mxPoint x="409.71" y="340" as="sourcePoint" />
            <mxPoint x="410.06" y="254" as="targetPoint" />
          </mxGeometry>
        </mxCell>
        <mxCell id="hyiKAdDwsRACDt_2N2M8-43" value="ANGAJATI" style="swimlane;fontStyle=1;childLayout=stackLayout;horizontal=1;startSize=26;horizontalStack=0;resizeParent=1;resizeParentMax=0;resizeLast=0;collapsible=1;marginBottom=0;align=center;fontSize=15;strokeWidth=2;" parent="1" vertex="1">
          <mxGeometry x="330" y="630" width="160" height="206" as="geometry" />
        </mxCell>
        <mxCell id="hyiKAdDwsRACDt_2N2M8-44" value="&lt;font style=&quot;font-size: 14px;&quot;&gt;PK angajat_id&lt;/font&gt;" style="text;strokeColor=none;fillColor=none;spacingLeft=4;spacingRight=4;overflow=hidden;rotatable=0;points=[[0,0.5],[1,0.5]];portConstraint=eastwest;fontSize=12;whiteSpace=wrap;html=1;" parent="hyiKAdDwsRACDt_2N2M8-43" vertex="1">
          <mxGeometry y="26" width="160" height="30" as="geometry" />
        </mxCell>
        <mxCell id="hyiKAdDwsRACDt_2N2M8-45" value="&lt;font style=&quot;font-size: 14px;&quot;&gt;FK departament_id&lt;/font&gt;" style="text;strokeColor=none;fillColor=none;spacingLeft=4;spacingRight=4;overflow=hidden;rotatable=0;points=[[0,0.5],[1,0.5]];portConstraint=eastwest;fontSize=12;whiteSpace=wrap;html=1;" parent="hyiKAdDwsRACDt_2N2M8-43" vertex="1">
          <mxGeometry y="56" width="160" height="30" as="geometry" />
        </mxCell>
        <mxCell id="hyiKAdDwsRACDt_2N2M8-46" value="&lt;font style=&quot;font-size: 14px;&quot;&gt;nume_angajat&lt;/font&gt;" style="text;strokeColor=none;fillColor=none;spacingLeft=4;spacingRight=4;overflow=hidden;rotatable=0;points=[[0,0.5],[1,0.5]];portConstraint=eastwest;fontSize=12;whiteSpace=wrap;html=1;" parent="hyiKAdDwsRACDt_2N2M8-43" vertex="1">
          <mxGeometry y="86" width="160" height="30" as="geometry" />
        </mxCell>
        <mxCell id="hyiKAdDwsRACDt_2N2M8-47" value="&lt;font style=&quot;font-size: 14px;&quot;&gt;specializare&lt;/font&gt;" style="text;strokeColor=none;fillColor=none;spacingLeft=4;spacingRight=4;overflow=hidden;rotatable=0;points=[[0,0.5],[1,0.5]];portConstraint=eastwest;fontSize=12;whiteSpace=wrap;html=1;" parent="hyiKAdDwsRACDt_2N2M8-43" vertex="1">
          <mxGeometry y="116" width="160" height="30" as="geometry" />
        </mxCell>
        <mxCell id="hyiKAdDwsRACDt_2N2M8-49" value="&lt;font style=&quot;font-size: 14px;&quot;&gt;salariu&lt;/font&gt;" style="text;strokeColor=none;fillColor=none;spacingLeft=4;spacingRight=4;overflow=hidden;rotatable=0;points=[[0,0.5],[1,0.5]];portConstraint=eastwest;fontSize=12;whiteSpace=wrap;html=1;" parent="hyiKAdDwsRACDt_2N2M8-43" vertex="1">
          <mxGeometry y="146" width="160" height="30" as="geometry" />
        </mxCell>
        <mxCell id="hyiKAdDwsRACDt_2N2M8-50" value="&lt;font style=&quot;font-size: 14px;&quot;&gt;data_angajare&lt;/font&gt;" style="text;strokeColor=none;fillColor=none;spacingLeft=4;spacingRight=4;overflow=hidden;rotatable=0;points=[[0,0.5],[1,0.5]];portConstraint=eastwest;fontSize=12;whiteSpace=wrap;html=1;" parent="hyiKAdDwsRACDt_2N2M8-43" vertex="1">
          <mxGeometry y="176" width="160" height="30" as="geometry" />
        </mxCell>
        <mxCell id="hyiKAdDwsRACDt_2N2M8-48" value="" style="endArrow=ERmany;html=1;rounded=0;strokeWidth=2;endFill=0;endSize=12;" parent="1" edge="1">
          <mxGeometry relative="1" as="geometry">
            <mxPoint x="409.78" y="630" as="sourcePoint" />
            <mxPoint x="409.5" y="546" as="targetPoint" />
          </mxGeometry>
        </mxCell>
        <mxCell id="hyiKAdDwsRACDt_2N2M8-51" value="" style="endArrow=none;html=1;rounded=0;strokeWidth=2;startArrow=ERmany;startFill=0;endSize=6;targetPerimeterSpacing=0;sourcePerimeterSpacing=0;startSize=12;" parent="1" edge="1">
          <mxGeometry relative="1" as="geometry">
            <mxPoint x="490" y="732.5" as="sourcePoint" />
            <mxPoint x="600" y="732.98" as="targetPoint" />
          </mxGeometry>
        </mxCell>
        <mxCell id="hyiKAdDwsRACDt_2N2M8-52" value="DEPARTAMENTE" style="swimlane;fontStyle=1;childLayout=stackLayout;horizontal=1;startSize=26;horizontalStack=0;resizeParent=1;resizeParentMax=0;resizeLast=0;collapsible=1;marginBottom=0;align=center;fontSize=15;strokeWidth=2;" parent="1" vertex="1">
          <mxGeometry x="600" y="670" width="150" height="116" as="geometry" />
        </mxCell>
        <mxCell id="hyiKAdDwsRACDt_2N2M8-53" value="&lt;font style=&quot;font-size: 14px;&quot;&gt;PK departament_id&lt;/font&gt;" style="text;strokeColor=none;fillColor=none;spacingLeft=4;spacingRight=4;overflow=hidden;rotatable=0;points=[[0,0.5],[1,0.5]];portConstraint=eastwest;fontSize=12;whiteSpace=wrap;html=1;" parent="hyiKAdDwsRACDt_2N2M8-52" vertex="1">
          <mxGeometry y="26" width="150" height="30" as="geometry" />
        </mxCell>
        <mxCell id="hyiKAdDwsRACDt_2N2M8-54" value="&lt;font style=&quot;font-size: 14px;&quot;&gt;nume_departament&lt;/font&gt;" style="text;strokeColor=none;fillColor=none;spacingLeft=4;spacingRight=4;overflow=hidden;rotatable=0;points=[[0,0.5],[1,0.5]];portConstraint=eastwest;fontSize=12;whiteSpace=wrap;html=1;" parent="hyiKAdDwsRACDt_2N2M8-52" vertex="1">
          <mxGeometry y="56" width="150" height="30" as="geometry" />
        </mxCell>
        <mxCell id="hyiKAdDwsRACDt_2N2M8-55" style="text;strokeColor=none;fillColor=none;spacingLeft=4;spacingRight=4;overflow=hidden;rotatable=0;points=[[0,0.5],[1,0.5]];portConstraint=eastwest;fontSize=12;whiteSpace=wrap;html=1;" parent="hyiKAdDwsRACDt_2N2M8-52" vertex="1">
          <mxGeometry y="86" width="150" height="30" as="geometry" />
        </mxCell>
      </root>
    </mxGraphModel>
  </diagram>
</mxfile>
